<svg width="283" height="264" viewBox="0 0 283 264" fill="none" xmlns="http://www.w3.org/2000/svg">
<path d="M44.9005 95.327L44.6627 95.7125C33.2368 114.313 29.7535 133.993 28.8888 154.002C28.4997 162.851 28.6356 171.764 28.824 180.677C28.8734 183.095 28.9321 185.516 28.9784 187.924C29.0062 189.096 29.0247 190.271 29.0463 191.437C29.6176 223.265 21.3262 234.408 16.0394 238.276C15.5621 238.629 15.0117 238.872 14.4284 238.986C13.8451 239.101 13.2436 239.083 12.668 238.935C12.0923 238.787 11.557 238.513 11.1011 238.132C10.6452 237.751 10.2803 237.273 10.0331 236.734C5.66655 227.074 -4.82054 198.491 2.55995 159.538C3.31962 155.529 4.26765 151.396 5.44112 147.165C5.82713 145.758 6.24402 144.337 6.67635 142.899C9.02735 135.184 12.023 127.68 15.6318 120.466C20.5664 110.588 26.7205 101.367 33.9502 93.017L36.5287 90.5189C38.1654 76.261 45.0765 59.7456 45.0765 59.7456C52.389 41.8177 70.7445 16.4478 98.5403 1.68412C100.706 0.519024 103.142 -0.0511912 105.6 0.0317109C108.058 0.114613 110.451 0.847661 112.532 2.15598C128.924 12.6574 133.479 29.7619 131.913 43.1747C130.777 52.8958 126.253 60.5444 123.56 64.3471C121.643 67.0751 120.046 70.014 118.801 73.106C117.257 76.9149 116.022 80.8965 115.645 84.5172C108.036 157.426 195.713 182.071 229.972 133.789C259.901 91.6076 231.42 57.4325 225.031 50.6506C224.956 50.5731 224.857 50.5222 224.75 50.5055C224.644 50.4889 224.534 50.5074 224.439 50.5582C224.344 50.6091 224.268 50.6896 224.222 50.7875C224.177 50.8854 224.165 50.9954 224.188 51.1008C227.214 66.7373 220.695 81.5256 218.422 86.0469C218.375 86.1439 218.298 86.2226 218.202 86.2709C218.105 86.3192 217.996 86.3344 217.89 86.3139C217.784 86.2935 217.688 86.2387 217.617 86.158C217.546 86.0774 217.503 85.9754 217.496 85.868C211.385 33.4751 174.362 8.39206 162.046 1.42197C161.931 1.35655 161.844 1.25107 161.801 1.12561C161.759 1.00014 161.764 0.863455 161.816 0.741559C161.868 0.619663 161.963 0.52107 162.083 0.464551C162.203 0.408032 162.339 0.397532 162.466 0.435049C206.542 11.8463 230.759 30.6316 235.583 34.6687C235.653 34.7291 235.74 34.7661 235.833 34.7744C235.925 34.7827 236.018 34.7619 236.098 34.715C236.178 34.6681 236.241 34.5974 236.279 34.5128C236.317 34.4281 236.327 34.3338 236.308 34.2431L233.961 18.8719C233.95 18.7917 233.961 18.7099 233.994 18.6359C234.028 18.562 234.081 18.4989 234.149 18.454C234.216 18.4092 234.295 18.3843 234.376 18.3824C234.457 18.3805 234.537 18.4016 234.607 18.4432C275.218 43.6034 303.514 109.079 264.101 169.54C230.163 221.603 172.478 220.428 156.046 217.769C116.491 211.37 90.0542 182.157 90.0481 182.151C64.0867 150.745 60.2142 119.574 62.66 96.5422C63.0559 94.6578 62.8674 92.6976 62.1196 90.9229C61.4691 89.4837 60.4627 88.2335 59.1952 87.2898C59.0333 87.1659 58.8439 87.0825 58.6431 87.0468C58.4423 87.011 58.2358 87.0239 58.041 87.0843C57.8462 87.1447 57.6687 87.2509 57.5235 87.394C57.3783 87.5371 57.2696 87.7129 57.2064 87.9066C40.3456 138.711 62.9286 171.224 86.9631 204.659C110.806 237.828 110.948 254.551 109.015 261.471C108.867 261.999 108.596 262.484 108.225 262.888C107.854 263.291 107.393 263.602 106.879 263.795C106.366 263.987 105.814 264.056 105.269 263.996C104.723 263.936 104.2 263.748 103.741 263.448C92.3147 256.015 54.8039 227.981 43.5232 173.435C37.5046 144.321 42.0162 117.221 48.6988 97.7542L48.8995 97.1806C49.0536 96.671 49.0192 96.1232 48.8027 95.6368C48.5863 95.1505 48.2021 94.7579 47.7201 94.5307C47.2382 94.3035 46.6906 94.2567 46.177 94.3989C45.6634 94.5411 45.2181 94.8628 44.9221 95.3054L44.9005 95.327Z" fill="#EF6A00"/>
</svg>
